<svg version="1.1" xmlns="http://www.w3.org/2000/svg" viewBox="0 0 3528.8583380381256 2066.5714285714294" width="3528.8583380381256" height="2066.5714285714294" filter="invert(93%) hue-rotate(180deg)">
  <!-- svg-source:excalidraw -->
  
  <defs>
    <style class="style-fonts">
      @font-face {
        font-family: "Virgil";
        src: url("https://excalidraw.com/Virgil.woff2");
      }
      @font-face {
        font-family: "Cascadia";
        src: url("https://excalidraw.com/Cascadia.woff2");
      }
    </style>
    
  </defs>
  <rect x="0" y="0" width="3528.8583380381256" height="2066.5714285714294" fill="#ffffff"></rect><g transform="translate(1874.777777777776 1048.5714285714294) rotate(0 615 504)"><text x="0" y="0" font-family="Cascadia, Segoe UI Emoji" font-size="28px" fill="#1e1e1e" text-anchor="start" style="white-space: pre;" direction="ltr" dominant-baseline="text-before-edge">Endpoints</text><text x="0" y="33.6" font-family="Cascadia, Segoe UI Emoji" font-size="28px" fill="#1e1e1e" text-anchor="start" style="white-space: pre;" direction="ltr" dominant-baseline="text-before-edge">-  </text><text x="0" y="67.2" font-family="Cascadia, Segoe UI Emoji" font-size="28px" fill="#1e1e1e" text-anchor="start" style="white-space: pre;" direction="ltr" dominant-baseline="text-before-edge">    -&gt; this contains text [endpoint, description, example text]</text><text x="0" y="100.80000000000001" font-family="Cascadia, Segoe UI Emoji" font-size="28px" fill="#1e1e1e" text-anchor="start" style="white-space: pre;" direction="ltr" dominant-baseline="text-before-edge">- </text><text x="0" y="134.4" font-family="Cascadia, Segoe UI Emoji" font-size="28px" fill="#1e1e1e" text-anchor="start" style="white-space: pre;" direction="ltr" dominant-baseline="text-before-edge">    -&gt; this contians slug and description (text)</text><text x="0" y="168" font-family="Cascadia, Segoe UI Emoji" font-size="28px" fill="#1e1e1e" text-anchor="start" style="white-space: pre;" direction="ltr" dominant-baseline="text-before-edge">- </text><text x="0" y="201.60000000000002" font-family="Cascadia, Segoe UI Emoji" font-size="28px" fill="#1e1e1e" text-anchor="start" style="white-space: pre;" direction="ltr" dominant-baseline="text-before-edge">    -&gt; this contains a listings of articles [with author, title, articleId</text><text x="0" y="235.20000000000002" font-family="Cascadia, Segoe UI Emoji" font-size="28px" fill="#1e1e1e" text-anchor="start" style="white-space: pre;" direction="ltr" dominant-baseline="text-before-edge">        topic, created at, votes, article img url, comment count</text><text x="0" y="268.8" font-family="Cascadia, Segoe UI Emoji" font-size="28px" fill="#1e1e1e" text-anchor="start" style="white-space: pre;" direction="ltr" dominant-baseline="text-before-edge">    -&gt; descending order</text><text x="0" y="302.40000000000003" font-family="Cascadia, Segoe UI Emoji" font-size="28px" fill="#1e1e1e" text-anchor="start" style="white-space: pre;" direction="ltr" dominant-baseline="text-before-edge">- </text><text x="0" y="336" font-family="Cascadia, Segoe UI Emoji" font-size="28px" fill="#1e1e1e" text-anchor="start" style="white-space: pre;" direction="ltr" dominant-baseline="text-before-edge">    -&gt; this contains a single article with the following:</text><text x="0" y="369.6" font-family="Cascadia, Segoe UI Emoji" font-size="28px" fill="#1e1e1e" text-anchor="start" style="white-space: pre;" direction="ltr" dominant-baseline="text-before-edge">           article id, title, topic, author, body, created at, votes</text><text x="0" y="403.20000000000005" font-family="Cascadia, Segoe UI Emoji" font-size="28px" fill="#1e1e1e" text-anchor="start" style="white-space: pre;" direction="ltr" dominant-baseline="text-before-edge">           article image</text><text x="0" y="436.8" font-family="Cascadia, Segoe UI Emoji" font-size="28px" fill="#1e1e1e" text-anchor="start" style="white-space: pre;" direction="ltr" dominant-baseline="text-before-edge">-</text><text x="0" y="470.40000000000003" font-family="Cascadia, Segoe UI Emoji" font-size="28px" fill="#1e1e1e" text-anchor="start" style="white-space: pre;" direction="ltr" dominant-baseline="text-before-edge">   -&gt; retrieves all comments for an article. should so no comments if none </text><text x="0" y="504" font-family="Cascadia, Segoe UI Emoji" font-size="28px" fill="#1e1e1e" text-anchor="start" style="white-space: pre;" direction="ltr" dominant-baseline="text-before-edge">         (display the same as article, just anchor to comments)</text><text x="0" y="537.6" font-family="Cascadia, Segoe UI Emoji" font-size="28px" fill="#1e1e1e" text-anchor="start" style="white-space: pre;" direction="ltr" dominant-baseline="text-before-edge">-</text><text x="0" y="571.2" font-family="Cascadia, Segoe UI Emoji" font-size="28px" fill="#1e1e1e" text-anchor="start" style="white-space: pre;" direction="ltr" dominant-baseline="text-before-edge">    -&gt; shows all users (text and image to display)</text><text x="0" y="604.8000000000001" font-family="Cascadia, Segoe UI Emoji" font-size="28px" fill="#1e1e1e" text-anchor="start" style="white-space: pre;" direction="ltr" dominant-baseline="text-before-edge">-</text><text x="0" y="638.4" font-family="Cascadia, Segoe UI Emoji" font-size="28px" fill="#1e1e1e" text-anchor="start" style="white-space: pre;" direction="ltr" dominant-baseline="text-before-edge">    -&gt; allows user to update following field [input box]</text><text x="0" y="672" font-family="Cascadia, Segoe UI Emoji" font-size="28px" fill="#1e1e1e" text-anchor="start" style="white-space: pre;" direction="ltr" dominant-baseline="text-before-edge">            (votes)</text><text x="0" y="705.6" font-family="Cascadia, Segoe UI Emoji" font-size="28px" fill="#1e1e1e" text-anchor="start" style="white-space: pre;" direction="ltr" dominant-baseline="text-before-edge">-</text><text x="0" y="739.2" font-family="Cascadia, Segoe UI Emoji" font-size="28px" fill="#1e1e1e" text-anchor="start" style="white-space: pre;" direction="ltr" dominant-baseline="text-before-edge">    -&gt; allows user to add a comment [input box on article id]</text><text x="0" y="772.8000000000001" font-family="Cascadia, Segoe UI Emoji" font-size="28px" fill="#1e1e1e" text-anchor="start" style="white-space: pre;" direction="ltr" dominant-baseline="text-before-edge">-</text><text x="0" y="806.4000000000001" font-family="Cascadia, Segoe UI Emoji" font-size="28px" fill="#1e1e1e" text-anchor="start" style="white-space: pre;" direction="ltr" dominant-baseline="text-before-edge">    -&gt; allows user to delete comment by id </text><text x="0" y="840" font-family="Cascadia, Segoe UI Emoji" font-size="28px" fill="#1e1e1e" text-anchor="start" style="white-space: pre;" direction="ltr" dominant-baseline="text-before-edge">            - show a comments page and then show delete button to</text><text x="0" y="873.6" font-family="Cascadia, Segoe UI Emoji" font-size="28px" fill="#1e1e1e" text-anchor="start" style="white-space: pre;" direction="ltr" dominant-baseline="text-before-edge">              to update the list realtime, also show on article page</text><text x="0" y="907.2" font-family="Cascadia, Segoe UI Emoji" font-size="28px" fill="#1e1e1e" text-anchor="start" style="white-space: pre;" direction="ltr" dominant-baseline="text-before-edge">    </text><text x="0" y="940.8000000000001" font-family="Cascadia, Segoe UI Emoji" font-size="28px" fill="#1e1e1e" text-anchor="start" style="white-space: pre;" direction="ltr" dominant-baseline="text-before-edge">            </text><text x="0" y="974.4000000000001" font-family="Cascadia, Segoe UI Emoji" font-size="28px" fill="#1e1e1e" text-anchor="start" style="white-space: pre;" direction="ltr" dominant-baseline="text-before-edge">          </text></g><g transform="translate(1904.6190476190463 1077.0634920634911) rotate(0 57.400001525878906 16.799999999999955)"><text x="0" y="0" font-family="Cascadia, Segoe UI Emoji" font-size="28px" fill="#1971c2" text-anchor="start" style="white-space: pre;" direction="ltr" dominant-baseline="text-before-edge">GET API</text></g><g transform="translate(1901.2857142857124 1145.9523809523803) rotate(0 114.80000305175781 16.799999999999955)"><text x="0" y="0" font-family="Cascadia, Segoe UI Emoji" font-size="28px" fill="#1971c2" text-anchor="start" style="white-space: pre;" direction="ltr" dominant-baseline="text-before-edge">GET API/topics</text></g><g transform="translate(1899.0634920634907 1213.730158730158) rotate(0 131.1999969482422 16.799999999999955)"><text x="0" y="0" font-family="Cascadia, Segoe UI Emoji" font-size="28px" fill="#1971c2" text-anchor="start" style="white-space: pre;" direction="ltr" dominant-baseline="text-before-edge">GET API/articles</text></g><g transform="translate(1900.174603174602 1347.0634920634916) rotate(0 229.60000610351562 16.799999999999955)"><text x="0" y="0" font-family="Cascadia, Segoe UI Emoji" font-size="28px" fill="#1971c2" text-anchor="start" style="white-space: pre;" direction="ltr" dominant-baseline="text-before-edge">GET API/articles/:article_id</text></g><g transform="translate(1900.174603174602 1482.6190476190473) rotate(0 303.3999938964844 16.799999999999955)"><text x="0" y="0" font-family="Cascadia, Segoe UI Emoji" font-size="28px" fill="#1971c2" text-anchor="start" style="white-space: pre;" direction="ltr" dominant-baseline="text-before-edge">GET API/articles/:article_id/comments</text></g><g transform="translate(1900.174603174602 1583.730158730158) rotate(0 106.5999984741211 16.799999999999955)"><text x="0" y="0" font-family="Cascadia, Segoe UI Emoji" font-size="28px" fill="#1971c2" text-anchor="start" style="white-space: pre;" direction="ltr" dominant-baseline="text-before-edge">GET API/users</text></g><g transform="translate(1901.2857142857124 1653.7301587301577) rotate(0 246 16.799999999999955)"><text x="0" y="0" font-family="Cascadia, Segoe UI Emoji" font-size="28px" fill="#f08c00" text-anchor="start" style="white-space: pre;" direction="ltr" dominant-baseline="text-before-edge">PATCH API/articles/:article_id</text></g><g transform="translate(1905.7301587301577 1754.8412698412694) rotate(0 311.6000061035156 16.799999999999955)"><text x="0" y="0" font-family="Cascadia, Segoe UI Emoji" font-size="28px" fill="#2f9e44" text-anchor="start" style="white-space: pre;" direction="ltr" dominant-baseline="text-before-edge">POST API/articles/:article_id/comments</text></g><g transform="translate(1905.7301587301577 1831.507936507936) rotate(0 262.3999938964844 16.799999999999955)"><text x="0" y="0" font-family="Cascadia, Segoe UI Emoji" font-size="28px" fill="#e03131" text-anchor="start" style="white-space: pre;" direction="ltr" dominant-baseline="text-before-edge">DELETE API/comments/:comments_id</text></g><g stroke-linecap="round" transform="translate(28 67.66666666666674) rotate(0 267.9999999999998 234.9999999999999)"><path d="M32 0 C162.1 1.22, 290.95 2.56, 504 0 M32 0 C192.85 0.65, 352.92 0.48, 504 0 M504 0 C524.89 -0.01, 536.1 10.07, 536 32 M504 0 C524.92 -0.92, 536.21 10.56, 536 32 M536 32 C534.85 168.53, 534.27 302.85, 536 438 M536 32 C535.85 150.99, 535.53 270.89, 536 438 M536 438 C536.4 460.16, 526.26 469.39, 504 470 M536 438 C534.18 460.4, 524.3 468.07, 504 470 M504 470 C398.09 470.97, 292.09 469.83, 32 470 M504 470 C372.6 472.2, 241.32 471.85, 32 470 M32 470 C10.18 469.83, -1.67 458.21, 0 438 M32 470 C12.86 469.08, -2.15 458.84, 0 438 M0 438 C0.4 345.99, 0.07 254.28, 0 32 M0 438 C2 292.54, 2.66 148.18, 0 32 M0 32 C0.11 11.72, 11.39 -1.43, 32 0 M0 32 C1.74 8.98, 10.1 1.39, 32 0" stroke="#1971c2" stroke-width="1" fill="none"></path></g><g transform="translate(224.6666666666656 16) rotate(0 65.5999984741211 16.80000000000001)"><text x="0" y="0" font-family="Cascadia, Segoe UI Emoji" font-size="28px" fill="#1971c2" text-anchor="start" style="white-space: pre;" direction="ltr" dominant-baseline="text-before-edge">APP HOME</text></g><g stroke-linecap="round" transform="translate(38 97.66666666666652) rotate(0 254.99999999999977 43)"><path d="M21.5 0 C117.6 -1.67, 212.88 -0.84, 488.5 0 M21.5 0 C207.37 -1.29, 393.46 -1.42, 488.5 0 M488.5 0 C502.48 -0.8, 510.18 7.08, 510 21.5 M488.5 0 C503.61 -1.31, 512.29 7.45, 510 21.5 M510 21.5 C509.72 38.19, 509.3 55.28, 510 64.5 M510 21.5 C509.97 31.11, 510.24 39.58, 510 64.5 M510 64.5 C508.42 79.76, 501.93 84.32, 488.5 86 M510 64.5 C508.25 81.06, 503.18 85.65, 488.5 86 M488.5 86 C314.35 84.26, 141.45 84.32, 21.5 86 M488.5 86 C326.36 85.31, 164.06 85.09, 21.5 86 M21.5 86 C9.07 85.2, -1.87 78.4, 0 64.5 M21.5 86 C5.46 84.81, -1.04 77.24, 0 64.5 M0 64.5 C1.56 50.99, 0.7 40.63, 0 21.5 M0 64.5 C-0.29 55.86, 0.01 45.45, 0 21.5 M0 21.5 C1.51 5.7, 6.67 1.21, 21.5 0 M0 21.5 C-0.42 6.86, 9.08 0.2, 21.5 0" stroke="#2f9e44" stroke-width="1" fill="none"></path></g><g transform="translate(243.7999992370601 123.86666666666656) rotate(0 49.20000076293945 16.799999999999955)"><text x="49.20000076293945" y="0" font-family="Cascadia, Segoe UI Emoji" font-size="28px" fill="#2f9e44" text-anchor="middle" style="white-space: pre;" direction="ltr" dominant-baseline="text-before-edge">NAVBAR</text></g><g stroke-linecap="round" transform="translate(50 217.66666666666652) rotate(0 243.99999999999977 148)"><path d="M32 0 C137.57 -1.86, 241.72 -1.08, 456 0 M32 0 C158.96 0.46, 286.15 0.65, 456 0 M456 0 C478.01 -1.14, 489.99 10.91, 488 32 M456 0 C479.44 -0.91, 487.67 10.53, 488 32 M488 32 C486.02 98.87, 487.32 167.87, 488 264 M488 32 C488.24 111.61, 488.53 189.73, 488 264 M488 264 C486.48 287.27, 477.64 295.69, 456 296 M488 264 C489.67 284.36, 476.08 295.49, 456 296 M456 296 C356.61 293.75, 255.9 294.44, 32 296 M456 296 C332.85 294.54, 208.21 294.64, 32 296 M32 296 C9.18 294.97, -0.91 283.94, 0 264 M32 296 C9.95 293.74, -0.84 286.65, 0 264 M0 264 C-1.74 218.45, 0.17 170.25, 0 32 M0 264 C-0.07 181.62, -0.92 100.98, 0 32 M0 32 C-0.37 10.4, 12.33 0.17, 32 0 M0 32 C1.34 10.22, 11.14 -2.1, 32 0" stroke="#1971c2" stroke-width="1" fill="none"></path></g><g transform="translate(211.99999999999955 301.6666666666665) rotate(0 65.5999984741211 33.60000000000002)"><text x="0" y="0" font-family="Cascadia, Segoe UI Emoji" font-size="28px" fill="#1971c2" text-anchor="start" style="white-space: pre;" direction="ltr" dominant-baseline="text-before-edge">&lt;Home /&gt;</text><text x="0" y="33.6" font-family="Cascadia, Segoe UI Emoji" font-size="28px" fill="#1971c2" text-anchor="start" style="white-space: pre;" direction="ltr" dominant-baseline="text-before-edge">LANDING</text></g><g stroke-linecap="round" transform="translate(620 65.66666666666674) rotate(0 267.9999999999998 234.9999999999999)"><path d="M32 0 C127.83 0.51, 223.41 0.31, 504 0 M32 0 C154.86 -0.16, 277.85 0.15, 504 0 M504 0 C527.17 -0.79, 535.71 10.55, 536 32 M504 0 C525.15 -0.61, 536.11 8.68, 536 32 M536 32 C536.25 132.91, 535.45 231.91, 536 438 M536 32 C534.56 173.24, 535.06 313.31, 536 438 M536 438 C537.45 458.49, 524.25 469.56, 504 470 M536 438 C534.52 461.5, 524 471.08, 504 470 M504 470 C405.07 468.74, 305.79 470.34, 32 470 M504 470 C381 469.31, 258.46 469.23, 32 470 M32 470 C10.04 468.03, -0.73 460.48, 0 438 M32 470 C8.42 470.31, -0.88 457.34, 0 438 M0 438 C0 283.74, -1.38 129.53, 0 32 M0 438 C0.45 345.88, 1.02 253.96, 0 32 M0 32 C1.17 10.28, 11.08 -1.82, 32 0 M0 32 C1.55 11.96, 11.24 -1.26, 32 0" stroke="#f08c00" stroke-width="1" fill="none"></path></g><g transform="translate(854.6666666666656 10) rotate(0 24.600000381469727 16.80000000000001)"><text x="0" y="0" font-family="Cascadia, Segoe UI Emoji" font-size="28px" fill="#f08c00" text-anchor="start" style="white-space: pre;" direction="ltr" dominant-baseline="text-before-edge">API</text></g><g stroke-linecap="round" transform="translate(638 95.66666666666652) rotate(0 254.99999999999977 43)"><path d="M21.5 0 C163.53 0.46, 306.25 0.68, 488.5 0 M21.5 0 C135.34 -0.44, 248.27 -0.29, 488.5 0 M488.5 0 C502.68 -0.53, 510.1 5.44, 510 21.5 M488.5 0 C501.62 -0.22, 510.46 8.12, 510 21.5 M510 21.5 C510.8 35.49, 508.19 49.77, 510 64.5 M510 21.5 C510.79 38.13, 509.52 55.39, 510 64.5 M510 64.5 C508.71 80.72, 501.67 86.94, 488.5 86 M510 64.5 C507.92 78.13, 502.27 85.81, 488.5 86 M488.5 86 C386.94 87.17, 285.91 87.35, 21.5 86 M488.5 86 C372.41 84.08, 256.44 84.78, 21.5 86 M21.5 86 C5.21 86.27, -0.76 77.1, 0 64.5 M21.5 86 C9.03 86.59, 0.12 80.04, 0 64.5 M0 64.5 C-1.16 49.56, 1.52 35.23, 0 21.5 M0 64.5 C0.22 51.99, -0.15 38.95, 0 21.5 M0 21.5 C1.35 8.29, 7.67 -1.1, 21.5 0 M0 21.5 C2.23 8.53, 7.4 1.14, 21.5 0" stroke="#2f9e44" stroke-width="1" fill="none"></path></g><g transform="translate(843.7999992370601 121.86666666666656) rotate(0 49.20000076293945 16.799999999999955)"><text x="49.20000076293945" y="0" font-family="Cascadia, Segoe UI Emoji" font-size="28px" fill="#2f9e44" text-anchor="middle" style="white-space: pre;" direction="ltr" dominant-baseline="text-before-edge">NAVBAR</text></g><g stroke-linecap="round" transform="translate(642 213.66666666666652) rotate(0 243.99999999999977 148)"><path d="M32 0 C162.49 0.29, 294.3 0.21, 456 0 M32 0 C142.4 -0.01, 252.91 -0.33, 456 0 M456 0 C476.28 -0.19, 488.4 11.5, 488 32 M456 0 C478.4 -0.7, 486.18 11.74, 488 32 M488 32 C487.99 91.39, 486.09 151.5, 488 264 M488 32 C486.39 92.59, 486.44 151.97, 488 264 M488 264 C486.19 284.72, 476.85 295.83, 456 296 M488 264 C486.08 284.05, 479.52 295.08, 456 296 M456 296 C367.89 293.87, 280.13 294.01, 32 296 M456 296 C369.95 297.35, 284.73 296.82, 32 296 M32 296 C12.29 296.52, 0.11 286.38, 0 264 M32 296 C11.5 294.36, 1.74 283.65, 0 264 M0 264 C-1.42 201.52, -1.04 137.21, 0 32 M0 264 C0.16 199.38, -0.19 133.34, 0 32 M0 32 C1.94 11.85, 10.87 0.99, 32 0 M0 32 C1.43 11.45, 12.21 0.08, 32 0" stroke="#f08c00" stroke-width="1" fill="none"></path></g><g transform="translate(751.9999999999995 269.6666666666665) rotate(0 139.39999389648438 84)"><text x="0" y="0" font-family="Cascadia, Segoe UI Emoji" font-size="28px" fill="#f08c00" text-anchor="start" style="white-space: pre;" direction="ltr" dominant-baseline="text-before-edge">&lt;Endpoints /&gt;</text><text x="0" y="33.6" font-family="Cascadia, Segoe UI Emoji" font-size="28px" fill="#f08c00" text-anchor="start" style="white-space: pre;" direction="ltr" dominant-baseline="text-before-edge">LIST of endpoints</text><text x="0" y="67.2" font-family="Cascadia, Segoe UI Emoji" font-size="28px" fill="#f08c00" text-anchor="start" style="white-space: pre;" direction="ltr" dominant-baseline="text-before-edge">with descriptions</text><text x="0" y="100.80000000000001" font-family="Cascadia, Segoe UI Emoji" font-size="28px" fill="#f08c00" text-anchor="start" style="white-space: pre;" direction="ltr" dominant-baseline="text-before-edge"></text><text x="0" y="134.4" font-family="Cascadia, Segoe UI Emoji" font-size="28px" fill="#f08c00" text-anchor="start" style="white-space: pre;" direction="ltr" dominant-baseline="text-before-edge">all text</text></g><g stroke-linecap="round" transform="translate(1198 67.66666666666674) rotate(0 267.9999999999998 234.9999999999999)"><path d="M32 0 C212.2 2.69, 393.97 1.73, 504 0 M32 0 C166.83 0.6, 301.42 0.38, 504 0 M504 0 C523.42 0.25, 534.92 9.5, 536 32 M504 0 C526.39 -1.73, 535.42 12.78, 536 32 M536 32 C536.06 118.69, 537.93 206.5, 536 438 M536 32 C537.69 176.11, 537.36 320.07, 536 438 M536 438 C536.77 458.54, 524.87 470.62, 504 470 M536 438 C537.07 458.49, 525.96 469.41, 504 470 M504 470 C342.59 470.98, 179.22 471.81, 32 470 M504 470 C337.58 471.48, 171.84 471.63, 32 470 M32 470 C10.38 470.32, 1.12 460.92, 0 438 M32 470 C8.68 468.38, -1.76 458, 0 438 M0 438 C-1.89 302.68, -2.6 169.44, 0 32 M0 438 C-1.86 322.96, -2.34 207.91, 0 32 M0 32 C-1.32 11.04, 12.08 1.24, 32 0 M0 32 C2.09 11.22, 11.23 0.24, 32 0" stroke="#9c36b5" stroke-width="1" fill="none"></path></g><g transform="translate(1403.9999999999995 12) rotate(0 49.20000076293945 16.80000000000001)"><text x="0" y="0" font-family="Cascadia, Segoe UI Emoji" font-size="28px" fill="#6741d9" text-anchor="start" style="white-space: pre;" direction="ltr" dominant-baseline="text-before-edge">TOPICS</text></g><g stroke-linecap="round" transform="translate(1214 95.66666666666652) rotate(0 254.99999999999977 43)"><path d="M21.5 0 C197.49 0.14, 373.45 1.17, 488.5 0 M21.5 0 C153.07 1.46, 285.26 1.14, 488.5 0 M488.5 0 C503.75 -1.5, 509.49 9, 510 21.5 M488.5 0 C500.88 1.06, 511.51 5.13, 510 21.5 M510 21.5 C511.44 33.18, 510.43 43.56, 510 64.5 M510 21.5 C510.37 34.1, 509.75 47.79, 510 64.5 M510 64.5 C510.93 78.1, 503.38 85.49, 488.5 86 M510 64.5 C511.01 78.16, 504.49 88.16, 488.5 86 M488.5 86 C376.9 87.56, 265.01 86.07, 21.5 86 M488.5 86 C354.22 86.51, 220.33 86.8, 21.5 86 M21.5 86 C5.44 84.59, -1.53 77.68, 0 64.5 M21.5 86 C7.9 88.24, -0.7 79.48, 0 64.5 M0 64.5 C-0.19 55.44, -0.8 43.61, 0 21.5 M0 64.5 C-0.5 52.64, 0.86 41.02, 0 21.5 M0 21.5 C1.81 7.64, 7.65 0.21, 21.5 0 M0 21.5 C0.38 5.98, 7.89 -1.55, 21.5 0" stroke="#2f9e44" stroke-width="1" fill="none"></path></g><g transform="translate(1419.79999923706 121.86666666666656) rotate(0 49.20000076293945 16.799999999999955)"><text x="49.20000076293945" y="0" font-family="Cascadia, Segoe UI Emoji" font-size="28px" fill="#2f9e44" text-anchor="middle" style="white-space: pre;" direction="ltr" dominant-baseline="text-before-edge">NAVBAR</text></g><g stroke-linecap="round" transform="translate(1218 213.66666666666652) rotate(0 243.99999999999977 148)"><path d="M32 0 C135.55 -0.65, 238.76 -2.29, 456 0 M32 0 C164.79 0.9, 296.96 1.78, 456 0 M456 0 C475.63 0.92, 489.31 8.9, 488 32 M456 0 C476.03 1.83, 487.71 11.93, 488 32 M488 32 C488.12 115.68, 487.7 200.12, 488 264 M488 32 C487.94 92.1, 487.77 152.6, 488 264 M488 264 C488.88 284.75, 478.77 297.88, 456 296 M488 264 C486.62 284.63, 478.09 297.19, 456 296 M456 296 C288.63 294.61, 121.74 294.31, 32 296 M456 296 C321.59 297.41, 187.69 297.47, 32 296 M32 296 C11.31 297.95, -0.61 285.89, 0 264 M32 296 C9.63 295.18, 2.2 284.94, 0 264 M0 264 C0.6 171.81, 0.26 79.74, 0 32 M0 264 C-0.62 190.29, -1.18 116.27, 0 32 M0 32 C0.33 9.63, 11.3 -1.35, 32 0 M0 32 C1.26 12.3, 10.6 0.77, 32 0" stroke="#6741d9" stroke-width="1" fill="none"></path></g><g transform="translate(1325.9999999999995 269.6666666666665) rotate(0 114.80000305175781 67.20000000000005)"><text x="0" y="0" font-family="Cascadia, Segoe UI Emoji" font-size="28px" fill="#6741d9" text-anchor="start" style="white-space: pre;" direction="ltr" dominant-baseline="text-before-edge">&lt;Topics /&gt;</text><text x="0" y="33.6" font-family="Cascadia, Segoe UI Emoji" font-size="28px" fill="#6741d9" text-anchor="start" style="white-space: pre;" direction="ltr" dominant-baseline="text-before-edge">LIST of topics</text><text x="0" y="67.2" font-family="Cascadia, Segoe UI Emoji" font-size="28px" fill="#6741d9" text-anchor="start" style="white-space: pre;" direction="ltr" dominant-baseline="text-before-edge"></text><text x="0" y="100.80000000000001" font-family="Cascadia, Segoe UI Emoji" font-size="28px" fill="#6741d9" text-anchor="start" style="white-space: pre;" direction="ltr" dominant-baseline="text-before-edge">all text</text></g><g stroke-linecap="round" transform="translate(22 677.6666666666667) rotate(0 267.9999999999998 262.9999999999999)"><path d="M32 0 C182.47 -2.07, 332.11 -1.13, 504 0 M32 0 C200.47 -1.13, 367.94 -1.8, 504 0 M504 0 C527.09 0.74, 534.88 11, 536 32 M504 0 C525.85 -2.08, 536.53 9.89, 536 32 M536 32 C537.16 149.92, 536.52 268.05, 536 494 M536 32 C535.12 185.68, 534.43 338.94, 536 494 M536 494 C535.59 516.93, 527.16 526.99, 504 526 M536 494 C536.2 514.89, 523.92 523.98, 504 526 M504 526 C393.14 526.89, 281.09 526.29, 32 526 M504 526 C353.84 525.93, 203.12 526, 32 526 M32 526 C9.67 524.02, 1.12 516.53, 0 494 M32 526 C11.42 527.03, -0.62 514.27, 0 494 M0 494 C-0.65 331.84, -0.19 169.24, 0 32 M0 494 C-1.65 384.12, -1.13 274.35, 0 32 M0 32 C0.43 11.77, 11.85 0.73, 32 0 M0 32 C-0.62 11.04, 11.15 -1.77, 32 0" stroke="#e03131" stroke-width="1" fill="none"></path></g><g transform="translate(221.99999999999955 599.6666666666667) rotate(0 65.5999984741211 16.799999999999955)"><text x="0" y="0" font-family="Cascadia, Segoe UI Emoji" font-size="28px" fill="#e03131" text-anchor="start" style="white-space: pre;" direction="ltr" dominant-baseline="text-before-edge">ARTICLES</text></g><g stroke-linecap="round" transform="translate(32 707.6666666666665) rotate(0 254.99999999999977 43)"><path d="M21.5 0 C151.15 -0.89, 280.45 -0.87, 488.5 0 M21.5 0 C205.97 1.35, 389.37 1.26, 488.5 0 M488.5 0 C503.29 -1.81, 510.46 6.49, 510 21.5 M488.5 0 C501.83 0.3, 508.82 9.36, 510 21.5 M510 21.5 C510.76 30.98, 508.17 43.85, 510 64.5 M510 21.5 C509.41 36.63, 510.53 50.65, 510 64.5 M510 64.5 C510.17 78.45, 501.61 84.24, 488.5 86 M510 64.5 C508.51 80.47, 502.88 86.52, 488.5 86 M488.5 86 C304.12 87.25, 119.35 87.16, 21.5 86 M488.5 86 C341.32 86.16, 194.85 86.89, 21.5 86 M21.5 86 C7.82 86.9, -0.54 77.91, 0 64.5 M21.5 86 C8.36 85.76, -1.66 76.68, 0 64.5 M0 64.5 C-1.06 50.7, -0.99 32.72, 0 21.5 M0 64.5 C0.15 52.32, 0.53 39.4, 0 21.5 M0 21.5 C-0.54 7.49, 7.59 -1.54, 21.5 0 M0 21.5 C1.77 7.3, 5.63 -0.43, 21.5 0" stroke="#2f9e44" stroke-width="1" fill="none"></path></g><g transform="translate(237.7999992370601 733.8666666666666) rotate(0 49.20000076293945 16.799999999999955)"><text x="49.20000076293945" y="0" font-family="Cascadia, Segoe UI Emoji" font-size="28px" fill="#2f9e44" text-anchor="middle" style="white-space: pre;" direction="ltr" dominant-baseline="text-before-edge">NAVBAR</text></g><g stroke-linecap="round" transform="translate(44 827.6666666666665) rotate(0 243.99999999999977 103)"><path d="M32 0 C199.55 -2.46, 364.53 -1.18, 456 0 M32 0 C174.98 -0.85, 317.84 -0.55, 456 0 M456 0 C476.46 0.26, 486.98 12.57, 488 32 M456 0 C476.08 0.59, 486.02 11.41, 488 32 M488 32 C487.28 65.12, 486.11 101.41, 488 174 M488 32 C489.38 85.75, 488.68 139, 488 174 M488 174 C486.71 196.76, 477.37 206.45, 456 206 M488 174 C490.19 193.33, 477.98 206.43, 456 206 M456 206 C298.33 207.39, 140.65 206.87, 32 206 M456 206 C370.97 207.57, 285.44 207.09, 32 206 M32 206 C11.71 205.8, -1.44 193.46, 0 174 M32 206 C11.75 204.99, 1.06 193.9, 0 174 M0 174 C0.76 123.76, 1.19 73.35, 0 32 M0 174 C-1.11 123.72, -0.63 72.35, 0 32 M0 32 C1.54 10.79, 9.33 -0.38, 32 0 M0 32 C-2.23 12.48, 8.94 -0.22, 32 0" stroke="#e03131" stroke-width="1" fill="none"></path></g><g transform="translate(165.99999999999955 909.6666666666665) rotate(0 131.1999969482422 50.39999999999998)"><text x="0" y="0" font-family="Cascadia, Segoe UI Emoji" font-size="28px" fill="#e03131" text-anchor="start" style="white-space: pre;" direction="ltr" dominant-baseline="text-before-edge">&lt;AllArticles /&gt;</text><text x="0" y="33.6" font-family="Cascadia, Segoe UI Emoji" font-size="28px" fill="#e03131" text-anchor="start" style="white-space: pre;" direction="ltr" dominant-baseline="text-before-edge">List of articles</text><text x="0" y="67.2" font-family="Cascadia, Segoe UI Emoji" font-size="28px" fill="#e03131" text-anchor="start" style="white-space: pre;" direction="ltr" dominant-baseline="text-before-edge"></text></g><g stroke-linecap="round" transform="translate(614 679.6666666666667) rotate(0 267.9999999999998 262.9999999999999)"><path d="M32 0 C183.58 -2.06, 333.53 -1.38, 504 0 M32 0 C170.49 1.25, 309.41 1.6, 504 0 M504 0 C524.32 0.85, 537.88 12.54, 536 32 M504 0 C527.44 -1.87, 538.16 8.57, 536 32 M536 32 C535.31 196.24, 535.23 359.9, 536 494 M536 32 C538.12 153.48, 537.83 274.58, 536 494 M536 494 C535.19 514.16, 524.83 525.75, 504 526 M536 494 C538.24 516.46, 527.27 524.99, 504 526 M504 526 C394.74 528.21, 286.63 528.32, 32 526 M504 526 C345.4 527.93, 186.38 527.34, 32 526 M32 526 C9.66 526.19, -0.13 515.04, 0 494 M32 526 C11.75 524.1, -1.14 516.46, 0 494 M0 494 C-2.33 394.74, -1.76 293.9, 0 32 M0 494 C-1.07 332.04, -1.02 170.16, 0 32 M0 32 C-0.62 11.19, 9.07 -1.45, 32 0 M0 32 C-0.23 11.1, 12.52 0.6, 32 0" stroke="#c2255c" stroke-width="1" fill="none"></path></g><g transform="translate(695.9999999999995 601.6666666666667) rotate(0 82 16.799999999999955)"><text x="0" y="0" font-family="Cascadia, Segoe UI Emoji" font-size="28px" fill="#c2255c" text-anchor="start" style="white-space: pre;" direction="ltr" dominant-baseline="text-before-edge">ARTICLE ID</text></g><g stroke-linecap="round" transform="translate(632 705.6666666666665) rotate(0 254.99999999999977 43)"><path d="M21.5 0 C187.94 1.84, 355.68 1.89, 488.5 0 M21.5 0 C131.85 0.63, 242.84 0.54, 488.5 0 M488.5 0 C504.72 1.87, 511.84 5.54, 510 21.5 M488.5 0 C504.99 -2.1, 511.27 6.86, 510 21.5 M510 21.5 C508.75 35.2, 509.06 52.12, 510 64.5 M510 21.5 C510.67 31.06, 509.98 40.43, 510 64.5 M510 64.5 C509.5 78.59, 504.78 86.98, 488.5 86 M510 64.5 C511.94 77.82, 501.22 85.72, 488.5 86 M488.5 86 C315.45 88.62, 143.34 88.49, 21.5 86 M488.5 86 C315.29 87.87, 141.45 88.07, 21.5 86 M21.5 86 C7.04 85.7, 0.94 77.18, 0 64.5 M21.5 86 C6.03 87.12, -1.93 80.82, 0 64.5 M0 64.5 C0.4 49.3, 1.24 36.71, 0 21.5 M0 64.5 C-0.31 55.89, 0.01 47.14, 0 21.5 M0 21.5 C-1.59 5.72, 6.97 0.37, 21.5 0 M0 21.5 C1.85 7.77, 9.46 1.29, 21.5 0" stroke="#2f9e44" stroke-width="1" fill="none"></path></g><g transform="translate(837.7999992370601 731.8666666666666) rotate(0 49.20000076293945 16.799999999999955)"><text x="49.20000076293945" y="0" font-family="Cascadia, Segoe UI Emoji" font-size="28px" fill="#2f9e44" text-anchor="middle" style="white-space: pre;" direction="ltr" dominant-baseline="text-before-edge">NAVBAR</text></g><g stroke-linecap="round" transform="translate(640 819.6666666666665) rotate(0 243.99999999999977 72)"><path d="M32 0 C131.44 1.94, 230.29 2.89, 456 0 M32 0 C201.28 -0.83, 370.6 -0.35, 456 0 M456 0 C477.99 -1.16, 489.99 9.55, 488 32 M456 0 C478.61 0.02, 488.22 11.79, 488 32 M488 32 C487.43 54.99, 487.78 81.4, 488 112 M488 32 C488.08 52.68, 486.83 74.9, 488 112 M488 112 C488.47 132.5, 478.98 144.21, 456 144 M488 112 C487.47 132.66, 478.66 144.37, 456 144 M456 144 C361.67 145.58, 267.39 145.48, 32 144 M456 144 C310.13 145.82, 163.83 145.61, 32 144 M32 144 C10.48 142.92, -1.12 133.04, 0 112 M32 144 C10.24 141.99, 1.48 131.53, 0 112 M0 112 C-1.92 85.41, -0.33 59.25, 0 32 M0 112 C0.06 85.06, 0.25 59.37, 0 32 M0 32 C-0.6 9.04, 10.33 -0.76, 32 0 M0 32 C0.46 12, 8.96 2.2, 32 0" stroke="#c2255c" stroke-width="1" fill="none"></path></g><g transform="translate(717.9999999999995 841.6666666666665) rotate(0 180.39999389648438 50.39999999999998)"><text x="0" y="0" font-family="Cascadia, Segoe UI Emoji" font-size="28px" fill="#c2255c" text-anchor="start" style="white-space: pre;" direction="ltr" dominant-baseline="text-before-edge">&lt;SingleArticle /&gt;</text><text x="0" y="33.6" font-family="Cascadia, Segoe UI Emoji" font-size="28px" fill="#c2255c" text-anchor="start" style="white-space: pre;" direction="ltr" dominant-baseline="text-before-edge">title, author, created</text><text x="0" y="67.2" font-family="Cascadia, Segoe UI Emoji" font-size="28px" fill="#c2255c" text-anchor="start" style="white-space: pre;" direction="ltr" dominant-baseline="text-before-edge">img, body</text></g><g stroke-linecap="round" transform="translate(1192 675.6666666666667) rotate(0 267.9999999999998 262.9999999999999)"><path d="M32 0 C152.44 -1.28, 271.89 -1.8, 504 0 M32 0 C192.83 1.91, 354.03 1.39, 504 0 M504 0 C526.34 -1.78, 534.89 8.98, 536 32 M504 0 C525.32 0.15, 535.34 10.55, 536 32 M536 32 C535.94 195.05, 536.53 360.61, 536 494 M536 32 C536.27 177.33, 536.05 322.57, 536 494 M536 494 C536.91 515.38, 525.69 524.03, 504 526 M536 494 C537.27 515.87, 523.55 524.86, 504 526 M504 526 C391.3 527.05, 278.34 527.36, 32 526 M504 526 C351.33 526.2, 198.69 526.84, 32 526 M32 526 C11.78 525.83, 0.39 516.49, 0 494 M32 526 C8.59 527.23, 1.66 513.26, 0 494 M0 494 C0.13 345.02, -1.46 195.42, 0 32 M0 494 C0.13 384.59, -0.03 276.1, 0 32 M0 32 C-1.43 10.57, 12.24 1.26, 32 0 M0 32 C-0.83 10.56, 10.28 -1.13, 32 0" stroke="#1e1e1e" stroke-width="1" fill="none"></path></g><g transform="translate(1271.9999999999995 603.6666666666667) rotate(0 164 16.799999999999955)"><text x="0" y="0" font-family="Cascadia, Segoe UI Emoji" font-size="28px" fill="#1e1e1e" text-anchor="start" style="white-space: pre;" direction="ltr" dominant-baseline="text-before-edge">COMMENTS (full page)</text></g><g stroke-linecap="round" transform="translate(1208 705.6666666666665) rotate(0 254.99999999999977 43)"><path d="M21.5 0 C180.15 0.18, 338.89 1.29, 488.5 0 M21.5 0 C198.13 -0.43, 374.87 -0.6, 488.5 0 M488.5 0 C502.94 -1.63, 511.51 8.82, 510 21.5 M488.5 0 C505.04 -2.03, 507.97 6.62, 510 21.5 M510 21.5 C508.39 33.59, 510.03 48.7, 510 64.5 M510 21.5 C509.53 30.05, 510.02 39.63, 510 64.5 M510 64.5 C509.42 80.01, 501.53 85.12, 488.5 86 M510 64.5 C509.35 79.95, 501.48 88.01, 488.5 86 M488.5 86 C316.47 87.4, 143.68 86.97, 21.5 86 M488.5 86 C302.8 85.39, 117.7 85.12, 21.5 86 M21.5 86 C8.81 86.01, 1.32 78.47, 0 64.5 M21.5 86 C9.4 86.83, 0.64 78.09, 0 64.5 M0 64.5 C-1.14 56.56, -1.44 45.43, 0 21.5 M0 64.5 C0.13 49.16, 0.85 33.36, 0 21.5 M0 21.5 C-1.7 6.98, 5.19 1.72, 21.5 0 M0 21.5 C0.42 6.47, 6.92 1.65, 21.5 0" stroke="#2f9e44" stroke-width="1" fill="none"></path></g><g transform="translate(1413.79999923706 731.8666666666666) rotate(0 49.20000076293945 16.799999999999955)"><text x="49.20000076293945" y="0" font-family="Cascadia, Segoe UI Emoji" font-size="28px" fill="#2f9e44" text-anchor="middle" style="white-space: pre;" direction="ltr" dominant-baseline="text-before-edge">NAVBAR</text></g><g stroke-linecap="round" transform="translate(1212 823.6666666666665) rotate(0 243.99999999999977 148)"><path d="M32 0 C186.7 0.22, 339.6 -0.37, 456 0 M32 0 C150.21 -2.44, 268.15 -2.44, 456 0 M456 0 C477.94 0.79, 487.06 12.39, 488 32 M456 0 C476.03 0.53, 488.51 11.19, 488 32 M488 32 C489.04 101.25, 489.67 170.7, 488 264 M488 32 C486.23 81.33, 486.68 128.76, 488 264 M488 264 C486.23 287.02, 476.67 295.49, 456 296 M488 264 C486.83 285.61, 475.89 298.08, 456 296 M456 296 C365.63 297.23, 274.75 297.24, 32 296 M456 296 C288.62 297.06, 122.44 296.27, 32 296 M32 296 C9.98 296.73, -1.64 285.67, 0 264 M32 296 C9.84 296.5, 0.29 286.32, 0 264 M0 264 C-1.52 173.61, 0.62 81.67, 0 32 M0 264 C0.05 181.67, -0.28 98.1, 0 32 M0 32 C1.13 12.1, 10.73 1.99, 32 0 M0 32 C-2.14 8.54, 10.2 1.49, 32 0" stroke="#1e1e1e" stroke-width="1" fill="none"></path></g><g transform="translate(1271.9999999999995 855.6666666666665) rotate(0 196.8000030517578 100.79999999999995)"><text x="0" y="0" font-family="Cascadia, Segoe UI Emoji" font-size="28px" fill="#1e1e1e" text-anchor="start" style="white-space: pre;" direction="ltr" dominant-baseline="text-before-edge">&lt;Comments /&gt;</text><text x="0" y="33.6" font-family="Cascadia, Segoe UI Emoji" font-size="28px" fill="#1e1e1e" text-anchor="start" style="white-space: pre;" direction="ltr" dominant-baseline="text-before-edge">LIST of all commnets</text><text x="0" y="67.2" font-family="Cascadia, Segoe UI Emoji" font-size="28px" fill="#1e1e1e" text-anchor="start" style="white-space: pre;" direction="ltr" dominant-baseline="text-before-edge">sorted by article</text><text x="0" y="100.80000000000001" font-family="Cascadia, Segoe UI Emoji" font-size="28px" fill="#1e1e1e" text-anchor="start" style="white-space: pre;" direction="ltr" dominant-baseline="text-before-edge"></text><text x="0" y="134.4" font-family="Cascadia, Segoe UI Emoji" font-size="28px" fill="#1e1e1e" text-anchor="start" style="white-space: pre;" direction="ltr" dominant-baseline="text-before-edge">-add comment</text><text x="0" y="168" font-family="Cascadia, Segoe UI Emoji" font-size="28px" fill="#1e1e1e" text-anchor="start" style="white-space: pre;" direction="ltr" dominant-baseline="text-before-edge">-delete specific comment</text></g><g stroke-linecap="round" transform="translate(646 1083.6666666666665) rotate(0 243.99999999999977 50)"><path d="M25 0 C113.34 1.42, 201.13 0.99, 463 0 M25 0 C159.48 1.64, 293.01 2.34, 463 0 M463 0 C479.45 -0.87, 486.6 6.84, 488 25 M463 0 C478.86 2.06, 489.22 8.19, 488 25 M488 25 C486.84 43.59, 488.3 64.14, 488 75 M488 25 C488.55 39.13, 488.25 54.48, 488 75 M488 75 C487.22 92.97, 480.24 101.51, 463 100 M488 75 C490.29 92.99, 479.12 101, 463 100 M463 100 C322.84 102.18, 184.19 103.02, 25 100 M463 100 C313.66 98.91, 163.64 99.33, 25 100 M25 100 C9.08 99.48, -0.15 91.65, 0 75 M25 100 C10.54 98.06, 1.49 89.78, 0 75 M0 75 C-1.2 55.96, -1.11 36.05, 0 25 M0 75 C0.13 64.97, 0.12 54.31, 0 25 M0 25 C-0.28 9.58, 8.94 0.57, 25 0 M0 25 C2.15 6.14, 7.86 0.67, 25 0" stroke="#0c8599" stroke-width="1" fill="none"></path></g><g transform="translate(659.9999999999995 1095.6666666666665) rotate(0 229.60000610351562 50.40000000000009)"><text x="0" y="0" font-family="Cascadia, Segoe UI Emoji" font-size="28px" fill="#0c8599" text-anchor="start" style="white-space: pre;" direction="ltr" dominant-baseline="text-before-edge">&lt;ArticleComment /&gt;</text><text x="0" y="33.6" font-family="Cascadia, Segoe UI Emoji" font-size="28px" fill="#0c8599" text-anchor="start" style="white-space: pre;" direction="ltr" dominant-baseline="text-before-edge">list of comments for article</text><text x="0" y="67.2" font-family="Cascadia, Segoe UI Emoji" font-size="28px" fill="#0c8599" text-anchor="start" style="white-space: pre;" direction="ltr" dominant-baseline="text-before-edge"></text></g><g stroke-linecap="round" transform="translate(648 971.6666666666665) rotate(0 243.99999999999977 50)"><path d="M25 0 C115.12 0.26, 204.72 -0.58, 463 0 M25 0 C148.93 -1.13, 273.86 -0.87, 463 0 M463 0 C481.5 -1.62, 489.87 6.51, 488 25 M463 0 C480.94 -0.3, 488.86 7.33, 488 25 M488 25 C486.99 42.15, 486.27 57.91, 488 75 M488 25 C487.74 40.96, 487.89 57.98, 488 75 M488 75 C489.95 92.65, 481.35 99.12, 463 100 M488 75 C486.39 91.39, 481.27 98.14, 463 100 M463 100 C295.69 102.88, 128.36 102.76, 25 100 M463 100 C289.45 99.26, 116.38 99.14, 25 100 M25 100 C9.28 98.35, -0.99 92.64, 0 75 M25 100 C6.4 101.98, 0.72 90.46, 0 75 M0 75 C0.97 57.64, -1.95 37.45, 0 25 M0 75 C0 60.12, -0.49 44, 0 25 M0 25 C-0.2 8.71, 9.94 0.52, 25 0 M0 25 C2.29 9.62, 7.52 0.95, 25 0" stroke="#1e1e1e" stroke-width="1" fill="none"></path></g><g transform="translate(663.9999999999995 985.6666666666665) rotate(0 123 33.60000000000002)"><text x="0" y="0" font-family="Cascadia, Segoe UI Emoji" font-size="28px" fill="#1e1e1e" text-anchor="start" style="white-space: pre;" direction="ltr" dominant-baseline="text-before-edge">&lt;Votes /&gt;</text><text x="0" y="33.6" font-family="Cascadia, Segoe UI Emoji" font-size="28px" fill="#1e1e1e" text-anchor="start" style="white-space: pre;" direction="ltr" dominant-baseline="text-before-edge">(show of votes)</text></g><g transform="translate(881.9999999999995 599.6666666666665) rotate(0 8.199999809265137 16.799999999999955)"><text x="0" y="0" font-family="Cascadia, Segoe UI Emoji" font-size="28px" fill="#1e1e1e" text-anchor="start" style="white-space: pre;" direction="ltr" dominant-baseline="text-before-edge">/</text></g><g transform="translate(915.9999999999995 603.6666666666665) rotate(0 90.19999694824219 33.60000000000002)"><text x="0" y="0" font-family="Cascadia, Segoe UI Emoji" font-size="28px" fill="#1971c2" text-anchor="start" style="white-space: pre;" direction="ltr" dominant-baseline="text-before-edge">COMMENTS </text><text x="0" y="33.6" font-family="Cascadia, Segoe UI Emoji" font-size="28px" fill="#1971c2" text-anchor="start" style="white-space: pre;" direction="ltr" dominant-baseline="text-before-edge">for article</text></g><g transform="translate(2362.6666666666665 71.66666666666652) rotate(0 123 16.799999999999955)"><text x="0" y="0" font-family="Cascadia, Segoe UI Emoji" font-size="28px" fill="#1e1e1e" text-anchor="start" style="white-space: pre;" direction="ltr" dominant-baseline="text-before-edge">COMPONENTS TREE</text></g><g transform="translate(2414.6666666666665 180.86666666666656) rotate(0 31.649999618530273 21.600000000000023)"><text x="0" y="0" font-family="Cascadia, Segoe UI Emoji" font-size="36px" fill="#1e1e1e" text-anchor="start" style="white-space: pre;" direction="ltr" dominant-baseline="text-before-edge">APP</text></g><g transform="translate(2164.6666666666665 283.6666666666665) rotate(0 49.20000076293945 16.799999999999955)"><text x="0" y="0" font-family="Cascadia, Segoe UI Emoji" font-size="28px" fill="#2f9e44" text-anchor="start" style="white-space: pre;" direction="ltr" dominant-baseline="text-before-edge">NAVBAR</text></g><g transform="translate(2518.6666666666665 311.6666666666665) rotate(0 90.19999694824219 16.799999999999955)"><text x="0" y="0" font-family="Cascadia, Segoe UI Emoji" font-size="28px" fill="#1e1e1e" text-anchor="start" style="white-space: pre;" direction="ltr" dominant-baseline="text-before-edge">DisplayArea</text></g><g transform="translate(2111.2666670481362 471.6666666666665) rotate(0 82 33.60000000000002)"><text x="82" y="0" font-family="Cascadia, Segoe UI Emoji" font-size="28px" fill="#f08c00" text-anchor="middle" style="white-space: pre;" direction="ltr" dominant-baseline="text-before-edge">API</text><text x="82" y="33.6" font-family="Cascadia, Segoe UI Emoji" font-size="28px" fill="#f08c00" text-anchor="middle" style="white-space: pre;" direction="ltr" dominant-baseline="text-before-edge">&lt;Endpoint&gt;</text></g><g transform="translate(2333.666668574015 469.6666666666665) rotate(0 65.5999984741211 33.60000000000002)"><text x="65.5999984741211" y="0" font-family="Cascadia, Segoe UI Emoji" font-size="28px" fill="#6741d9" text-anchor="middle" style="white-space: pre;" direction="ltr" dominant-baseline="text-before-edge">TOPICS</text><text x="65.5999984741211" y="33.6" font-family="Cascadia, Segoe UI Emoji" font-size="28px" fill="#6741d9" text-anchor="middle" style="white-space: pre;" direction="ltr" dominant-baseline="text-before-edge">&lt;Topics&gt;</text></g><g transform="translate(2672.666668574015 593.6666666666665) rotate(0 106.5999984741211 33.60000000000002)"><text x="106.5999984741211" y="0" font-family="Cascadia, Segoe UI Emoji" font-size="28px" fill="#e03131" text-anchor="middle" style="white-space: pre;" direction="ltr" dominant-baseline="text-before-edge">ARTICLES</text><text x="106.5999984741211" y="33.6" font-family="Cascadia, Segoe UI Emoji" font-size="28px" fill="#e03131" text-anchor="middle" style="white-space: pre;" direction="ltr" dominant-baseline="text-before-edge">&lt;AllArticles&gt;</text></g><g transform="translate(2992.2666670481362 657.6666666666665) rotate(0 123 33.60000000000002)"><text x="123" y="0" font-family="Cascadia, Segoe UI Emoji" font-size="28px" fill="#c2255c" text-anchor="middle" style="white-space: pre;" direction="ltr" dominant-baseline="text-before-edge">ARTICLE ID</text><text x="123" y="33.6" font-family="Cascadia, Segoe UI Emoji" font-size="28px" fill="#c2255c" text-anchor="middle" style="white-space: pre;" direction="ltr" dominant-baseline="text-before-edge">&lt;SingleArticle&gt;</text></g><g transform="translate(2963.8666655222573 887.6666666666665) rotate(0 57.400001525878906 33.60000000000002)"><text x="57.400001525878906" y="0" font-family="Cascadia, Segoe UI Emoji" font-size="28px" fill="#1e1e1e" text-anchor="middle" style="white-space: pre;" direction="ltr" dominant-baseline="text-before-edge">Votes</text><text x="57.400001525878906" y="33.6" font-family="Cascadia, Segoe UI Emoji" font-size="28px" fill="#1e1e1e" text-anchor="middle" style="white-space: pre;" direction="ltr" dominant-baseline="text-before-edge">&lt;Votes&gt;</text></g><g transform="translate(3173.866673151652 895.6666666666665) rotate(0 139.39999389648438 33.60000000000002)"><text x="139.39999389648438" y="0" font-family="Cascadia, Segoe UI Emoji" font-size="28px" fill="#1971c2" text-anchor="middle" style="white-space: pre;" direction="ltr" dominant-baseline="text-before-edge">Comments</text><text x="139.39999389648438" y="33.6" font-family="Cascadia, Segoe UI Emoji" font-size="28px" fill="#1971c2" text-anchor="middle" style="white-space: pre;" direction="ltr" dominant-baseline="text-before-edge">&lt;ArticleComments&gt;</text></g><g transform="translate(3273.2666670481353 484.86666666666633) rotate(0 82 33.60000000000002)"><text x="82" y="0" font-family="Cascadia, Segoe UI Emoji" font-size="28px" fill="#1e1e1e" text-anchor="middle" style="white-space: pre;" direction="ltr" dominant-baseline="text-before-edge">COMMENTS</text><text x="82" y="33.6" font-family="Cascadia, Segoe UI Emoji" font-size="28px" fill="#1e1e1e" text-anchor="middle" style="white-space: pre;" direction="ltr" dominant-baseline="text-before-edge">&lt;Comments&gt;</text></g><g stroke-linecap="round"><g transform="translate(2402.636127019468 227.18033306077018) rotate(0 -73.87758916097482 22.97862533932107)"><path d="M-0.17 0.19 C-24.82 7.85, -123.41 38.43, -148.08 46.06 M0.55 -0.1 C-24.12 7.44, -123.48 37.92, -148.31 45.47" stroke="#2f9e44" stroke-width="1" fill="none"></path></g><g transform="translate(2402.636127019468 227.18033306077018) rotate(0 -73.87758916097482 22.97862533932107)"><path d="M-124.35 27.42 C-130.24 32.53, -136.14 37.04, -148.31 45.47 M-124.35 27.42 C-133.01 33.85, -141.54 40.67, -148.31 45.47" stroke="#2f9e44" stroke-width="1" fill="none"></path></g><g transform="translate(2402.636127019468 227.18033306077018) rotate(0 -73.87758916097482 22.97862533932107)"><path d="M-118.35 47.04 C-125.82 47.02, -133.29 46.42, -148.31 45.47 M-118.35 47.04 C-129.1 46.42, -139.78 46.18, -148.31 45.47" stroke="#2f9e44" stroke-width="1" fill="none"></path></g></g><mask></mask><g stroke-linecap="round"><g transform="translate(2474.0811931005405 226.2968491193351) rotate(0 76.4972822119289 32.76536794547849)"><path d="M0.97 -0.45 C26.47 10.63, 127.46 54.92, 152.98 66.02 M0.01 -1.73 C25.33 9.54, 126.26 55.77, 151.88 67.26" stroke="#1e1e1e" stroke-width="1" fill="none"></path></g><g transform="translate(2474.0811931005405 226.2968491193351) rotate(0 76.4972822119289 32.76536794547849)"><path d="M121.97 64.96 C130.12 64.93, 138.86 67.49, 151.88 67.26 M121.97 64.96 C129.05 65.1, 137.61 65.4, 151.88 67.26" stroke="#1e1e1e" stroke-width="1" fill="none"></path></g><g transform="translate(2474.0811931005405 226.2968491193351) rotate(0 76.4972822119289 32.76536794547849)"><path d="M130.45 46.27 C136.01 51.88, 142.22 60, 151.88 67.26 M130.45 46.27 C135.12 51.36, 141.43 56.6, 151.88 67.26" stroke="#1e1e1e" stroke-width="1" fill="none"></path></g></g><mask></mask><g stroke-linecap="round"><g transform="translate(2559.640618017987 353.0742834388584) rotate(0 -156.78711755139557 53.9499368433344)"><path d="M-0.04 -1.06 C-52.28 16.96, -260.27 89.56, -312.47 107.82 M-1.52 1 C-54.01 19.18, -261.97 90.83, -313.53 108.96" stroke="#f08c00" stroke-width="1" fill="none"></path></g><g transform="translate(2559.640618017987 353.0742834388584) rotate(0 -156.78711755139557 53.9499368433344)"><path d="M-290.27 90.01 C-300.85 96.8, -309.14 102.64, -313.53 108.96 M-290.27 90.01 C-296.89 94.82, -304.01 100.86, -313.53 108.96" stroke="#f08c00" stroke-width="1" fill="none"></path></g><g transform="translate(2559.640618017987 353.0742834388584) rotate(0 -156.78711755139557 53.9499368433344)"><path d="M-283.53 109.39 C-296.61 108.87, -307.44 107.4, -313.53 108.96 M-283.53 109.39 C-291.95 108.48, -301.04 108.84, -313.53 108.96" stroke="#f08c00" stroke-width="1" fill="none"></path></g></g><mask></mask><g stroke-linecap="round"><g transform="translate(2588.837020788607 357.6666666666663) rotate(0 -89.48715328010621 51.13721074844716)"><path d="M0.1 -0.89 C-29.61 15.93, -148.73 84.74, -178.69 101.75 M-1.31 1.26 C-31.04 18.18, -149.23 86.36, -179.07 103.16" stroke="#6741d9" stroke-width="1" fill="none"></path></g><g transform="translate(2588.837020788607 357.6666666666663) rotate(0 -89.48715328010621 51.13721074844716)"><path d="M-159.67 80.28 C-166.02 88.03, -169.99 92.4, -179.07 103.16 M-159.67 80.28 C-163.16 85.19, -168.95 91.11, -179.07 103.16" stroke="#6741d9" stroke-width="1" fill="none"></path></g><g transform="translate(2588.837020788607 357.6666666666663) rotate(0 -89.48715328010621 51.13721074844716)"><path d="M-149.5 98.1 C-158.62 101.23, -165.22 100.98, -179.07 103.16 M-149.5 98.1 C-155.45 98.81, -163.61 100.59, -179.07 103.16" stroke="#6741d9" stroke-width="1" fill="none"></path></g></g><mask></mask><g stroke-linecap="round"><g transform="translate(2674.065634800711 359.6666666666663) rotate(0 40.80885701343959 114.9421478968859)"><path d="M0.04 0.41 C13.73 38.78, 69.38 190.78, 83.02 229.19 M-1.41 -0.43 C12.16 38.18, 68.9 192.07, 82.66 230.31" stroke="#e03131" stroke-width="1" fill="none"></path></g><g transform="translate(2674.065634800711 359.6666666666663) rotate(0 40.80885701343959 114.9421478968859)"><path d="M63.37 207.34 C70.96 217.68, 76.06 224.3, 82.66 230.31 M63.37 207.34 C70.96 215.41, 78 224.68, 82.66 230.31" stroke="#e03131" stroke-width="1" fill="none"></path></g><g transform="translate(2674.065634800711 359.6666666666663) rotate(0 40.80885701343959 114.9421478968859)"><path d="M82.64 200.31 C83.06 213.25, 81.05 222.47, 82.66 230.31 M82.64 200.31 C83.06 211.07, 82.86 222.98, 82.66 230.31" stroke="#e03131" stroke-width="1" fill="none"></path></g></g><mask></mask><g stroke-linecap="round"><g transform="translate(2730.7532674218005 353.6666666666663) rotate(0 181.71371496268375 148.85802184848114)"><path d="M-0.25 0.94 C60.19 50.13, 302.97 246.49, 363.68 295.87 M1.81 0.38 C61.99 49.7, 302.41 248.15, 362.66 297.33" stroke="#c2255c" stroke-width="1" fill="none"></path></g><g transform="translate(2730.7532674218005 353.6666666666663) rotate(0 181.71371496268375 148.85802184848114)"><path d="M334.36 287.37 C346.95 291.06, 356.13 295.47, 362.66 297.33 M334.36 287.37 C345.86 291.18, 357.9 294.71, 362.66 297.33" stroke="#c2255c" stroke-width="1" fill="none"></path></g><g transform="translate(2730.7532674218005 353.6666666666663) rotate(0 181.71371496268375 148.85802184848114)"><path d="M347.39 271.51 C355.02 281.32, 359.16 291.87, 362.66 297.33 M347.39 271.51 C353.75 281.62, 360.59 291.47, 362.66 297.33" stroke="#c2255c" stroke-width="1" fill="none"></path></g></g><mask></mask><g stroke-linecap="round"><g transform="translate(2764.3666788736978 343.139985849243) rotate(0 288.2859062125026 65.06045200011044)"><path d="M0.51 0.78 C96.74 22.06, 481 107.31, 577.26 128.47 M-0.69 0.15 C95.4 21.56, 479.93 108.57, 576.33 129.97" stroke="#1e1e1e" stroke-width="1" fill="none"></path></g><g transform="translate(2764.3666788736978 343.139985849243) rotate(0 288.2859062125026 65.06045200011044)"><path d="M546.58 133.81 C556.44 132.64, 563.62 132.83, 576.33 129.97 M546.58 133.81 C554.27 133, 559.76 132.68, 576.33 129.97" stroke="#1e1e1e" stroke-width="1" fill="none"></path></g><g transform="translate(2764.3666788736978 343.139985849243) rotate(0 288.2859062125026 65.06045200011044)"><path d="M551.07 113.79 C559.77 118.41, 565.65 124.38, 576.33 129.97 M551.07 113.79 C557.64 117.6, 562.1 121.92, 576.33 129.97" stroke="#1e1e1e" stroke-width="1" fill="none"></path></g></g><mask></mask><g stroke-linecap="round"><g transform="translate(3050.8726756677765 770.7224714199322) rotate(0 -12.397737768325442 51.44143095411664)"><path d="M-0.06 0.03 C-4.25 17.15, -20.81 85.68, -24.96 102.82 M0.32 -0.16 C-3.9 16.99, -20.87 85.84, -25.12 103.04" stroke="#1e1e1e" stroke-width="1" fill="none"></path></g><g transform="translate(3050.8726756677765 770.7224714199322) rotate(0 -12.397737768325442 51.44143095411664)"><path d="M-28.33 73.22 C-27.12 84, -26.26 94.6, -25.12 103.04 M-28.33 73.22 C-27.54 80.85, -26.57 88.51, -25.12 103.04" stroke="#1e1e1e" stroke-width="1" fill="none"></path></g><g transform="translate(3050.8726756677765 770.7224714199322) rotate(0 -12.397737768325442 51.44143095411664)"><path d="M-8.41 78.13 C-14.34 87.15, -20.62 95.98, -25.12 103.04 M-8.41 78.13 C-12.78 84.47, -16.97 90.86, -25.12 103.04" stroke="#1e1e1e" stroke-width="1" fill="none"></path></g></g><mask></mask><g stroke-linecap="round"><g transform="translate(3209.9992892014075 776.174998728434) rotate(0 41.43140711552542 55.03939485637454)"><path d="M-0.98 1.03 C12.92 19.17, 69.94 90.32, 83.84 108.52 M0.71 0.53 C14.46 18.81, 69.18 91.58, 83.21 109.55" stroke="#1971c2" stroke-width="1" fill="none"></path></g><g transform="translate(3209.9992892014075 776.174998728434) rotate(0 41.43140711552542 55.03939485637454)"><path d="M57.94 93.38 C68.11 100.01, 73.27 103.06, 83.21 109.55 M57.94 93.38 C66.42 99.85, 77.02 105.93, 83.21 109.55" stroke="#1971c2" stroke-width="1" fill="none"></path></g><g transform="translate(3209.9992892014075 776.174998728434) rotate(0 41.43140711552542 55.03939485637454)"><path d="M74.25 80.92 C78.91 91.61, 78.58 98.84, 83.21 109.55 M74.25 80.92 C76.68 92.08, 81.33 102.71, 83.21 109.55" stroke="#1971c2" stroke-width="1" fill="none"></path></g></g><mask></mask><g transform="translate(1925.0666681925454 468.0666666666664) rotate(0 65.5999984741211 33.60000000000002)"><text x="0" y="0" font-family="Cascadia, Segoe UI Emoji" font-size="28px" fill="#1971c2" text-anchor="start" style="white-space: pre;" direction="ltr" dominant-baseline="text-before-edge">LANDING</text><text x="0" y="33.6" font-family="Cascadia, Segoe UI Emoji" font-size="28px" fill="#1971c2" text-anchor="start" style="white-space: pre;" direction="ltr" dominant-baseline="text-before-edge">&lt;Home /&gt;</text></g><g stroke-linecap="round"><g transform="translate(2514.823400354901 354.3294994720234) rotate(0 -223.20203280066653 53.30290981240978)"><path d="M1.03 -0.33 C-73.37 17.6, -372.35 88.9, -446.99 106.86 M0.11 -1.54 C-74.32 16.6, -372.92 89.75, -447.43 108.15" stroke="#1971c2" stroke-width="1" fill="none"></path></g><g transform="translate(2514.823400354901 354.3294994720234) rotate(0 -223.20203280066653 53.30290981240978)"><path d="M-422.51 91.46 C-429.45 97.48, -436.01 102.02, -447.43 108.15 M-422.51 91.46 C-430.49 96.74, -437.41 101.8, -447.43 108.15" stroke="#1971c2" stroke-width="1" fill="none"></path></g><g transform="translate(2514.823400354901 354.3294994720234) rotate(0 -223.20203280066653 53.30290981240978)"><path d="M-417.61 111.38 C-425.68 112.41, -433.47 111.91, -447.43 108.15 M-417.61 111.38 C-426.99 110.43, -435.43 109.29, -447.43 108.15" stroke="#1971c2" stroke-width="1" fill="none"></path></g></g><mask></mask><g transform="translate(2669.3750006357827 679.6666666666663) rotate(0 111.30833435058594 12)"><text x="0" y="0" font-family="Cascadia, Segoe UI Emoji" font-size="20px" fill="#846358" text-anchor="start" style="white-space: pre;" direction="ltr" dominant-baseline="text-before-edge">state: topic filter</text></g><g transform="translate(3249.375000635782 569.6666666666663) rotate(0 134.74166870117188 12)"><text x="0" y="0" font-family="Cascadia, Segoe UI Emoji" font-size="20px" fill="#846358" text-anchor="start" style="white-space: pre;" direction="ltr" dominant-baseline="text-before-edge">state: comments history</text></g><g transform="translate(3037.3750006357827 743.6666666666663) rotate(0 99.59166717529297 12)"><text x="0" y="0" font-family="Cascadia, Segoe UI Emoji" font-size="20px" fill="#846358" text-anchor="start" style="white-space: pre;" direction="ltr" dominant-baseline="text-before-edge">state: article id</text></g><g stroke-linecap="round" transform="translate(10 1320.6666666666665) rotate(0 267.9999999999998 235)"><path d="M32 0 C220.15 -2.06, 408.96 -2, 504 0 M32 0 C160.8 1.78, 290.16 2, 504 0 M504 0 C526.26 -0.61, 534.42 11.6, 536 32 M504 0 C524.3 -1.93, 534.25 12.89, 536 32 M536 32 C535.18 159.32, 535.41 287.14, 536 438 M536 32 C534.18 191.91, 534.55 352.12, 536 438 M536 438 C534.33 458.21, 527.24 469.2, 504 470 M536 438 C533.85 458.84, 523.63 468.81, 504 470 M504 470 C382.9 469.02, 264.06 468.47, 32 470 M504 470 C356.33 468.29, 207.96 468.4, 32 470 M32 470 C11.39 468.57, 1.51 457.87, 0 438 M32 470 C10.1 471.39, -0.42 459.02, 0 438 M0 438 C-0.41 282.62, -1.21 127.53, 0 32 M0 438 C-0.02 293.66, -0.51 148.94, 0 32 M0 32 C1.24 11.35, 12.01 0.07, 32 0 M0 32 C0.09 8.89, 9.81 -1.48, 32 0" stroke="#fd7e14" stroke-width="1" fill="none"></path></g><g transform="translate(241.99999999999955 1256.6666666666665) rotate(0 41 16.799999999999955)"><text x="0" y="0" font-family="Cascadia, Segoe UI Emoji" font-size="28px" fill="#fd7e14" text-anchor="start" style="white-space: pre;" direction="ltr" dominant-baseline="text-before-edge">USERS</text></g><g stroke-linecap="round" transform="translate(26 1348.6666666666665) rotate(0 254.99999999999977 43)"><path d="M21.5 0 C154.67 0.21, 287.54 -0.31, 488.5 0 M21.5 0 C157.41 -1.02, 292.54 -0.67, 488.5 0 M488.5 0 C501.93 -1.68, 508.48 9.1, 510 21.5 M488.5 0 C503.18 -0.35, 511.67 6.19, 510 21.5 M510 21.5 C511.79 30.9, 510.84 40.81, 510 64.5 M510 21.5 C509.06 32.52, 510.85 44.26, 510 64.5 M510 64.5 C508.13 78.4, 501.35 84.97, 488.5 86 M510 64.5 C508.96 77.24, 502.11 83.74, 488.5 86 M488.5 86 C365.54 83.58, 241.55 84.66, 21.5 86 M488.5 86 C336.52 86.79, 184.55 86.78, 21.5 86 M21.5 86 C6.67 87.21, -0.37 78.56, 0 64.5 M21.5 86 C9.08 86.2, 1.34 78.39, 0 64.5 M0 64.5 C1.52 51.21, -0.71 38.86, 0 21.5 M0 64.5 C0.58 49.39, 0.63 33.62, 0 21.5 M0 21.5 C0.08 5.62, 6.42 -1.29, 21.5 0 M0 21.5 C-0.21 8.7, 8.11 0.56, 21.5 0" stroke="#2f9e44" stroke-width="1" fill="none"></path></g><g transform="translate(231.7999992370601 1374.8666666666663) rotate(0 49.20000076293945 16.799999999999955)"><text x="49.20000076293945" y="0" font-family="Cascadia, Segoe UI Emoji" font-size="28px" fill="#2f9e44" text-anchor="middle" style="white-space: pre;" direction="ltr" dominant-baseline="text-before-edge">NAVBAR</text></g><g stroke-linecap="round" transform="translate(30 1466.6666666666665) rotate(0 243.99999999999977 148)"><path d="M32 0 C161.12 1.39, 290.88 1.67, 456 0 M32 0 C146.04 -1.48, 260.16 -0.53, 456 0 M456 0 C477.64 -0.31, 489.45 9.82, 488 32 M456 0 C476.08 -0.51, 486.52 12.84, 488 32 M488 32 C488.4 87.7, 488.78 142.81, 488 264 M488 32 C489.08 88.44, 489.24 144.82, 488 264 M488 264 C487.09 283.94, 476.71 294.03, 456 296 M488 264 C487.16 286.65, 475.08 296.31, 456 296 M456 296 C345.21 297.86, 234.42 298.19, 32 296 M456 296 C358.99 294.68, 262.15 294.29, 32 296 M32 296 C12.33 296.17, 1.17 284.95, 0 264 M32 296 C11.14 293.9, 1.55 286.63, 0 264 M0 264 C2.09 188.78, 1.92 114.27, 0 32 M0 264 C-1.28 185.85, -1.63 108.47, 0 32 M0 32 C-0.18 12, 11.49 0.49, 32 0 M0 32 C0.39 8.49, 8.87 -0.1, 32 0" stroke="#fd7e14" stroke-width="1" fill="none"></path></g><g transform="translate(137.99999999999955 1522.6666666666665) rotate(0 106.5999984741211 67.20000000000005)"><text x="0" y="0" font-family="Cascadia, Segoe UI Emoji" font-size="28px" fill="#fd7e14" text-anchor="start" style="white-space: pre;" direction="ltr" dominant-baseline="text-before-edge">&lt;Users /&gt;</text><text x="0" y="33.6" font-family="Cascadia, Segoe UI Emoji" font-size="28px" fill="#fd7e14" text-anchor="start" style="white-space: pre;" direction="ltr" dominant-baseline="text-before-edge">LIST of users</text><text x="0" y="67.2" font-family="Cascadia, Segoe UI Emoji" font-size="28px" fill="#fd7e14" text-anchor="start" style="white-space: pre;" direction="ltr" dominant-baseline="text-before-edge"></text><text x="0" y="100.80000000000001" font-family="Cascadia, Segoe UI Emoji" font-size="28px" fill="#fd7e14" text-anchor="start" style="white-space: pre;" direction="ltr" dominant-baseline="text-before-edge">text &amp; image</text></g><g transform="translate(2524.6666666666656 470.6666666666665) rotate(0 57.400001525878906 33.60000000000002)"><text x="0" y="0" font-family="Cascadia, Segoe UI Emoji" font-size="28px" fill="#fd7e14" text-anchor="start" style="white-space: pre;" direction="ltr" dominant-baseline="text-before-edge">USERS</text><text x="0" y="33.6" font-family="Cascadia, Segoe UI Emoji" font-size="28px" fill="#fd7e14" text-anchor="start" style="white-space: pre;" direction="ltr" dominant-baseline="text-before-edge">&lt;Users&gt;</text></g><g stroke-linecap="round"><g transform="translate(2620.6666666666665 349.6666666666663) rotate(0 -21.16142319817891 55.96084709730883)"><path d="M-0.05 -0.15 C-7 18.52, -34.93 93.36, -41.98 112 M-0.54 -0.56 C-7.52 18.18, -35.43 93.74, -42.27 112.48" stroke="#fd7e14" stroke-width="1" fill="none"></path></g><g transform="translate(2620.6666666666665 349.6666666666663) rotate(0 -21.16142319817891 55.96084709730883)"><path d="M-42.17 82.49 C-42.5 89.47, -42.23 95.73, -42.27 112.48 M-42.17 82.49 C-41.96 88.89, -42.59 94.9, -42.27 112.48" stroke="#fd7e14" stroke-width="1" fill="none"></path></g><g transform="translate(2620.6666666666665 349.6666666666663) rotate(0 -21.16142319817891 55.96084709730883)"><path d="M-22.91 89.57 C-27.7 94.9, -31.9 99.52, -42.27 112.48 M-22.91 89.57 C-26.75 94.49, -31.44 99.01, -42.27 112.48" stroke="#fd7e14" stroke-width="1" fill="none"></path></g></g><mask></mask><g transform="translate(1874.6666666666665 833.5333333333331) rotate(0 515.5333251953125 60)"><text x="0" y="0" font-family="Cascadia, Segoe UI Emoji" font-size="20px" fill="#1e1e1e" text-anchor="start" style="white-space: pre;" direction="ltr" dominant-baseline="text-before-edge">Items to consider/plan for</text><text x="0" y="24" font-family="Cascadia, Segoe UI Emoji" font-size="20px" fill="#1e1e1e" text-anchor="start" style="white-space: pre;" direction="ltr" dominant-baseline="text-before-edge">- share of info between Comments full page &amp; ArticleComments components</text><text x="0" y="48" font-family="Cascadia, Segoe UI Emoji" font-size="20px" fill="#1e1e1e" text-anchor="start" style="white-space: pre;" direction="ltr" dominant-baseline="text-before-edge">       [scenario1: user deletes comment on Comments full page, shows on ArticleComments,</text><text x="0" y="72" font-family="Cascadia, Segoe UI Emoji" font-size="20px" fill="#1e1e1e" text-anchor="start" style="white-space: pre;" direction="ltr" dominant-baseline="text-before-edge">        scenario2: user adds comment at ArticleComments, shows on Comments full page]</text><text x="0" y="96" font-family="Cascadia, Segoe UI Emoji" font-size="20px" fill="#1e1e1e" text-anchor="start" style="white-space: pre;" direction="ltr" dominant-baseline="text-before-edge">- additional filters for AllArticles component: author, votes, created date </text></g><g stroke-linecap="round" transform="translate(97.99999999999955 1095.6666666666665) rotate(0 193.99999999999977 38)"><path d="M19 0 C149.67 0.13, 280.84 0.86, 369 0 M19 0 C138.22 -1.61, 257.58 -1.96, 369 0 M369 0 C383.4 1.79, 389.9 7.51, 388 19 M369 0 C381.17 -0.64, 385.96 6.53, 388 19 M388 19 C388.41 26.36, 387.64 34.87, 388 57 M388 19 C387.66 28.09, 387.94 38.34, 388 57 M388 57 C386.44 70.94, 381.77 74.06, 369 76 M388 57 C386.71 68.32, 382.98 74.72, 369 76 M369 76 C292.25 74.92, 215.52 74.26, 19 76 M369 76 C258.73 78.2, 148.51 78.16, 19 76 M19 76 C5.14 75.03, -1.01 69.55, 0 57 M19 76 C4.74 74.45, 0.41 69.6, 0 57 M0 57 C-1.67 49.3, 2.16 41.32, 0 19 M0 57 C-0.44 45.35, -0.09 32.03, 0 19 M0 19 C0.13 6.05, 5 0.34, 19 0 M0 19 C-0.56 7.28, 7.55 -1.58, 19 0" stroke="#1e1e1e" stroke-width="1" fill="none"></path></g><g transform="translate(155.99999999999955 1119.6666666666665) rotate(0 131.1999969482422 16.799999999999955)"><text x="0" y="0" font-family="Cascadia, Segoe UI Emoji" font-size="28px" fill="#1e1e1e" text-anchor="start" style="white-space: pre;" direction="ltr" dominant-baseline="text-before-edge">filter controls?</text></g></svg>